<svg id="OBJECTS" xmlns="http://www.w3.org/2000/svg" xmlns:xlink="http://www.w3.org/1999/xlink" viewBox="0 0 2930.03 2927.3"><defs><style>.cls-1{fill:url(#linear-gradient);}.cls-2{font-size:457.19px;font-family:BarlowCondensed-Bold, Barlow Condensed;}.cls-2,.cls-6,.cls-7{fill:#da0000;}.cls-2,.cls-7{font-weight:700;}.cls-3,.cls-4,.cls-5{fill:#60a9ea;}.cls-3{letter-spacing:0em;}.cls-4{letter-spacing:0em;}.cls-5{letter-spacing:0em;}.cls-6{stroke:#da0000;stroke-miterlimit:10;stroke-width:3px;}.cls-7{font-size:123.15px;font-family:Poppins-Bold, Poppins;}</style><linearGradient id="linear-gradient" x1="427.86" y1="1657.37" x2="3204.88" y2="1657.37" gradientUnits="userSpaceOnUse"><stop offset="0" stop-color="#ddeffa"/><stop offset="0.17" stop-color="#96cbcd"/><stop offset="0.31" stop-color="#87c6ef"/><stop offset="0.4" stop-color="#78c3f0"/><stop offset="0.5" stop-color="#61a9e9"/><stop offset="1" stop-color="#32348b"/></linearGradient></defs><path class="cls-1" d="M3202.22,879.16c-300-1.65-608.63-102.72-917.39-300.48-236.18-151.27-402.49-315.24-468.46-385-66,69.72-232.29,233.69-468.46,385-308.77,197.76-617.36,298.83-917.4,300.48-3.38,59.58-22,493.7,119.34,965.14C637.6,2137,769.22,2387.23,941,2588.38c-95.27-174.29-169.48-383.6-221-623.66-42.61-198.67-63.3-390.06-73-545.17-6.79-93-8.26-170.92-8-226.44-1.06-68.26,1.07-114.54,2-130.21,254.41-1.4,516.08-87.1,777.9-254.79,172.2-110.29,300.42-228.4,368.59-297,6.64-7.26,12.8-14.08,18-19.94l.75.83c3.5-3.63,6.89-7.16,9.9-10.35,55.94,59.12,197,198.16,397.23,326.43,261.82,167.69,523.49,253.39,777.9,254.79,2.73,47.95,17,382-84,757.7-11.37,53-24.64,107.25-40.2,162-76.23,268.16-190.88,496.32-340.78,678.1-159.54,193.49-359.83,334.49-596.42,420.72-37.55,16.49-75.44,30-113.52,39.59,347-87.79,635.66-260.17,858.05-512.38,178.43-202.34,314.9-456.32,405.63-754.81C3224.48,1378.67,3205.63,939.14,3202.22,879.16Z" transform="translate(-274.85 -193.72)"/><text class="cls-2" transform="translate(0 2690.73)">Bit<tspan class="cls-3" x="451.69" y="0">D</tspan><tspan class="cls-4" x="669.31" y="0">e</tspan><tspan class="cls-5" x="867.27" y="0">fence</tspan></text><line class="cls-6" x1="20.37" y1="2789" x2="438.13" y2="2789"/><text class="cls-7" transform="translate(470.44 2832.65)">SECURE YOUR WORLD</text></svg>